%TF.GenerationSoftware,KiCad,Pcbnew,7.0.10*%
%TF.CreationDate,2024-01-22T16:24:30-06:00*%
%TF.ProjectId,6502 V1.3-rounded,36353032-2056-4312-9e33-2d726f756e64,rev?*%
%TF.SameCoordinates,Original*%
%TF.FileFunction,Soldermask,Top*%
%TF.FilePolarity,Negative*%
%FSLAX46Y46*%
G04 Gerber Fmt 4.6, Leading zero omitted, Abs format (unit mm)*
G04 Created by KiCad (PCBNEW 7.0.10) date 2024-01-22 16:24:30*
%MOMM*%
%LPD*%
G01*
G04 APERTURE LIST*
G04 Aperture macros list*
%AMRoundRect*
0 Rectangle with rounded corners*
0 $1 Rounding radius*
0 $2 $3 $4 $5 $6 $7 $8 $9 X,Y pos of 4 corners*
0 Add a 4 corners polygon primitive as box body*
4,1,4,$2,$3,$4,$5,$6,$7,$8,$9,$2,$3,0*
0 Add four circle primitives for the rounded corners*
1,1,$1+$1,$2,$3*
1,1,$1+$1,$4,$5*
1,1,$1+$1,$6,$7*
1,1,$1+$1,$8,$9*
0 Add four rect primitives between the rounded corners*
20,1,$1+$1,$2,$3,$4,$5,0*
20,1,$1+$1,$4,$5,$6,$7,0*
20,1,$1+$1,$6,$7,$8,$9,0*
20,1,$1+$1,$8,$9,$2,$3,0*%
G04 Aperture macros list end*
%ADD10RoundRect,0.250000X-0.650000X0.325000X-0.650000X-0.325000X0.650000X-0.325000X0.650000X0.325000X0*%
%ADD11RoundRect,0.250000X-0.325000X-0.650000X0.325000X-0.650000X0.325000X0.650000X-0.325000X0.650000X0*%
%ADD12R,1.600000X1.600000*%
%ADD13O,1.600000X1.600000*%
%ADD14R,1.700000X1.700000*%
%ADD15O,1.700000X1.700000*%
%ADD16RoundRect,0.250000X-0.312500X-0.625000X0.312500X-0.625000X0.312500X0.625000X-0.312500X0.625000X0*%
%ADD17C,5.600000*%
%ADD18R,0.900000X0.900000*%
%ADD19RoundRect,0.250000X0.312500X0.625000X-0.312500X0.625000X-0.312500X-0.625000X0.312500X-0.625000X0*%
%ADD20RoundRect,0.250000X0.650000X-0.325000X0.650000X0.325000X-0.650000X0.325000X-0.650000X-0.325000X0*%
%ADD21C,1.600000*%
%ADD22RoundRect,0.250000X-0.375000X-0.625000X0.375000X-0.625000X0.375000X0.625000X-0.375000X0.625000X0*%
%ADD23R,2.000000X1.600000*%
%ADD24C,0.650000*%
%ADD25RoundRect,0.150000X0.425000X-0.150000X0.425000X0.150000X-0.425000X0.150000X-0.425000X-0.150000X0*%
%ADD26RoundRect,0.075000X0.500000X-0.075000X0.500000X0.075000X-0.500000X0.075000X-0.500000X-0.075000X0*%
%ADD27O,2.100000X1.000000*%
%ADD28O,1.800000X1.000000*%
%ADD29R,0.400000X1.200000*%
%ADD30RoundRect,0.250000X-0.625000X0.312500X-0.625000X-0.312500X0.625000X-0.312500X0.625000X0.312500X0*%
%ADD31RoundRect,0.250000X0.625000X-0.312500X0.625000X0.312500X-0.625000X0.312500X-0.625000X-0.312500X0*%
%ADD32R,1.120000X2.440000*%
G04 APERTURE END LIST*
D10*
%TO.C,C9*%
X157480000Y-44245000D03*
X157480000Y-47195000D03*
%TD*%
D11*
%TO.C,C2*%
X51865000Y-25400000D03*
X54815000Y-25400000D03*
%TD*%
D12*
%TO.C,U5*%
X126980000Y-31745000D03*
D13*
X126980000Y-34285000D03*
X126980000Y-36825000D03*
X126980000Y-39365000D03*
X126980000Y-41905000D03*
X126980000Y-44445000D03*
X126980000Y-46985000D03*
X126980000Y-49525000D03*
X126980000Y-52065000D03*
X126980000Y-54605000D03*
X126980000Y-57145000D03*
X126980000Y-59685000D03*
X137140000Y-59685000D03*
X137140000Y-57145000D03*
X137140000Y-54605000D03*
X137140000Y-52065000D03*
X137140000Y-49525000D03*
X137140000Y-46985000D03*
X137140000Y-44445000D03*
X137140000Y-41905000D03*
X137140000Y-39365000D03*
X137140000Y-36825000D03*
X137140000Y-34285000D03*
X137140000Y-31745000D03*
%TD*%
D11*
%TO.C,C1*%
X31545000Y-25400000D03*
X34495000Y-25400000D03*
%TD*%
D12*
%TO.C,U1*%
X25395000Y-31755000D03*
D13*
X25395000Y-34295000D03*
X25395000Y-36835000D03*
X25395000Y-39375000D03*
X25395000Y-41915000D03*
X25395000Y-44455000D03*
X25395000Y-46995000D03*
X25395000Y-49535000D03*
X25395000Y-52075000D03*
X25395000Y-54615000D03*
X25395000Y-57155000D03*
X25395000Y-59695000D03*
X25395000Y-62235000D03*
X25395000Y-64775000D03*
X25395000Y-67315000D03*
X25395000Y-69855000D03*
X25395000Y-72395000D03*
X25395000Y-74935000D03*
X25395000Y-77475000D03*
X25395000Y-80015000D03*
X40635000Y-80015000D03*
X40635000Y-77475000D03*
X40635000Y-74935000D03*
X40635000Y-72395000D03*
X40635000Y-69855000D03*
X40635000Y-67315000D03*
X40635000Y-64775000D03*
X40635000Y-62235000D03*
X40635000Y-59695000D03*
X40635000Y-57155000D03*
X40635000Y-54615000D03*
X40635000Y-52075000D03*
X40635000Y-49535000D03*
X40635000Y-46995000D03*
X40635000Y-44455000D03*
X40635000Y-41915000D03*
X40635000Y-39375000D03*
X40635000Y-36835000D03*
X40635000Y-34295000D03*
X40635000Y-31755000D03*
%TD*%
D14*
%TO.C,J2*%
X58420000Y-86360000D03*
D15*
X58420000Y-88900000D03*
X60960000Y-86360000D03*
X60960000Y-88900000D03*
X63500000Y-86360000D03*
X63500000Y-88900000D03*
X66040000Y-86360000D03*
X66040000Y-88900000D03*
X68580000Y-86360000D03*
X68580000Y-88900000D03*
X71120000Y-86360000D03*
X71120000Y-88900000D03*
X73660000Y-86360000D03*
X73660000Y-88900000D03*
X76200000Y-86360000D03*
X76200000Y-88900000D03*
X78740000Y-86360000D03*
X78740000Y-88900000D03*
X81280000Y-86360000D03*
X81280000Y-88900000D03*
X83820000Y-86360000D03*
X83820000Y-88900000D03*
X86360000Y-86360000D03*
X86360000Y-88900000D03*
X88900000Y-86360000D03*
X88900000Y-88900000D03*
X91440000Y-86360000D03*
X91440000Y-88900000D03*
X93980000Y-86360000D03*
X93980000Y-88900000D03*
X96520000Y-86360000D03*
X96520000Y-88900000D03*
X99060000Y-86360000D03*
X99060000Y-88900000D03*
X101600000Y-86360000D03*
X101600000Y-88900000D03*
X104140000Y-86360000D03*
X104140000Y-88900000D03*
X106680000Y-86360000D03*
X106680000Y-88900000D03*
X109220000Y-86360000D03*
X109220000Y-88900000D03*
X111760000Y-86360000D03*
X111760000Y-88900000D03*
X114300000Y-86360000D03*
X114300000Y-88900000D03*
X116840000Y-86360000D03*
X116840000Y-88900000D03*
X119380000Y-86360000D03*
X119380000Y-88900000D03*
X121920000Y-86360000D03*
X121920000Y-88900000D03*
X124460000Y-86360000D03*
X124460000Y-88900000D03*
X127000000Y-86360000D03*
X127000000Y-88900000D03*
X129540000Y-86360000D03*
X129540000Y-88900000D03*
X132080000Y-86360000D03*
X132080000Y-88900000D03*
X134620000Y-86360000D03*
X134620000Y-88900000D03*
X137160000Y-86360000D03*
X137160000Y-88900000D03*
%TD*%
D14*
%TO.C,JP1*%
X136430000Y-68580000D03*
D15*
X136430000Y-71120000D03*
%TD*%
D16*
%TO.C,R8*%
X159635000Y-50800000D03*
X162560000Y-50800000D03*
%TD*%
D17*
%TO.C,REF\u002A\u002A*%
X167640000Y-25400000D03*
%TD*%
D18*
%TO.C,RN1*%
X85020000Y-27940000D03*
X86360000Y-27940000D03*
X87680000Y-27940000D03*
X89020000Y-27940000D03*
X89020000Y-24940000D03*
X87680000Y-24940000D03*
X86360000Y-24940000D03*
X85020000Y-24940000D03*
%TD*%
D12*
%TO.C,U3*%
X86360000Y-31760000D03*
D13*
X86360000Y-34300000D03*
X86360000Y-36840000D03*
X86360000Y-39380000D03*
X86360000Y-41920000D03*
X86360000Y-44460000D03*
X86360000Y-47000000D03*
X86360000Y-49540000D03*
X86360000Y-52080000D03*
X86360000Y-54620000D03*
X86360000Y-57160000D03*
X86360000Y-59700000D03*
X86360000Y-62240000D03*
X86360000Y-64780000D03*
X101600000Y-64780000D03*
X101600000Y-62240000D03*
X101600000Y-59700000D03*
X101600000Y-57160000D03*
X101600000Y-54620000D03*
X101600000Y-52080000D03*
X101600000Y-49540000D03*
X101600000Y-47000000D03*
X101600000Y-44460000D03*
X101600000Y-41920000D03*
X101600000Y-39380000D03*
X101600000Y-36840000D03*
X101600000Y-34300000D03*
X101600000Y-31760000D03*
%TD*%
D19*
%TO.C,R9*%
X160020000Y-40640000D03*
X157095000Y-40640000D03*
%TD*%
D20*
%TO.C,C8*%
X157480000Y-31955000D03*
X157480000Y-29005000D03*
%TD*%
D12*
%TO.C,X2*%
X160020000Y-68580000D03*
D21*
X160020000Y-83820000D03*
X167640000Y-83820000D03*
X167640000Y-68580000D03*
%TD*%
D17*
%TO.C,REF\u002A\u002A*%
X25400000Y-25400000D03*
%TD*%
D12*
%TO.C,X1*%
X144780000Y-68580000D03*
D21*
X144780000Y-83820000D03*
X152400000Y-83820000D03*
X152400000Y-68580000D03*
%TD*%
D17*
%TO.C,REF\u002A\u002A*%
X167640000Y-91440000D03*
%TD*%
D22*
%TO.C,D3*%
X166240000Y-50800000D03*
X169040000Y-50800000D03*
%TD*%
D16*
%TO.C,R7*%
X159635000Y-55880000D03*
X162560000Y-55880000D03*
%TD*%
D11*
%TO.C,C10*%
X144780000Y-45720000D03*
X147730000Y-45720000D03*
%TD*%
D22*
%TO.C,D2*%
X166240000Y-60960000D03*
X169040000Y-60960000D03*
%TD*%
D23*
%TO.C,SW2*%
X142080000Y-25400000D03*
X147480000Y-25400000D03*
%TD*%
D14*
%TO.C,JP3*%
X127430000Y-68580000D03*
D15*
X127430000Y-71120000D03*
%TD*%
D12*
%TO.C,U4*%
X106675000Y-31760000D03*
D13*
X106675000Y-34300000D03*
X106675000Y-36840000D03*
X106675000Y-39380000D03*
X106675000Y-41920000D03*
X106675000Y-44460000D03*
X106675000Y-47000000D03*
X106675000Y-49540000D03*
X106675000Y-52080000D03*
X106675000Y-54620000D03*
X106675000Y-57160000D03*
X106675000Y-59700000D03*
X106675000Y-62240000D03*
X106675000Y-64780000D03*
X121915000Y-64780000D03*
X121915000Y-62240000D03*
X121915000Y-59700000D03*
X121915000Y-57160000D03*
X121915000Y-54620000D03*
X121915000Y-52080000D03*
X121915000Y-49540000D03*
X121915000Y-47000000D03*
X121915000Y-44460000D03*
X121915000Y-41920000D03*
X121915000Y-39380000D03*
X121915000Y-36840000D03*
X121915000Y-34300000D03*
X121915000Y-31760000D03*
%TD*%
D24*
%TO.C,J1*%
X166442846Y-40973591D03*
X166442846Y-35193591D03*
D25*
X165367846Y-41283591D03*
X165367846Y-40483591D03*
D26*
X165367846Y-39333591D03*
X165367846Y-38333591D03*
X165367846Y-37833591D03*
X165367846Y-36833591D03*
D25*
X165367846Y-35683591D03*
X165367846Y-34883591D03*
X165367846Y-34883591D03*
X165367846Y-35683591D03*
D26*
X165367846Y-36333591D03*
X165367846Y-37333591D03*
X165367846Y-38833591D03*
X165367846Y-39833591D03*
D25*
X165367846Y-40483591D03*
X165367846Y-41283591D03*
D27*
X165942846Y-42403591D03*
D28*
X170122846Y-42403591D03*
D27*
X165942846Y-33763591D03*
D28*
X170122846Y-33763591D03*
%TD*%
D14*
%TO.C,JP2*%
X132080000Y-68580000D03*
D15*
X132080000Y-71120000D03*
%TD*%
D12*
%TO.C,U2*%
X45715000Y-31755000D03*
D13*
X45715000Y-34295000D03*
X45715000Y-36835000D03*
X45715000Y-39375000D03*
X45715000Y-41915000D03*
X45715000Y-44455000D03*
X45715000Y-46995000D03*
X45715000Y-49535000D03*
X45715000Y-52075000D03*
X45715000Y-54615000D03*
X45715000Y-57155000D03*
X45715000Y-59695000D03*
X45715000Y-62235000D03*
X45715000Y-64775000D03*
X45715000Y-67315000D03*
X45715000Y-69855000D03*
X45715000Y-72395000D03*
X45715000Y-74935000D03*
X45715000Y-77475000D03*
X45715000Y-80015000D03*
X60955000Y-80015000D03*
X60955000Y-77475000D03*
X60955000Y-74935000D03*
X60955000Y-72395000D03*
X60955000Y-69855000D03*
X60955000Y-67315000D03*
X60955000Y-64775000D03*
X60955000Y-62235000D03*
X60955000Y-59695000D03*
X60955000Y-57155000D03*
X60955000Y-54615000D03*
X60955000Y-52075000D03*
X60955000Y-49535000D03*
X60955000Y-46995000D03*
X60955000Y-44455000D03*
X60955000Y-41915000D03*
X60955000Y-39375000D03*
X60955000Y-36835000D03*
X60955000Y-34295000D03*
X60955000Y-31755000D03*
%TD*%
D22*
%TO.C,D1*%
X166240000Y-55880000D03*
X169040000Y-55880000D03*
%TD*%
D11*
%TO.C,C6*%
X131023432Y-25400000D03*
X133973432Y-25400000D03*
%TD*%
D18*
%TO.C,RN2*%
X130740000Y-79200000D03*
X132080000Y-79200000D03*
X133400000Y-79200000D03*
X134740000Y-79200000D03*
X134740000Y-76200000D03*
X133400000Y-76200000D03*
X132080000Y-76200000D03*
X130740000Y-76200000D03*
%TD*%
D11*
%TO.C,C4*%
X92505000Y-25400000D03*
X95455000Y-25400000D03*
%TD*%
D29*
%TO.C,U6*%
X148715000Y-40700000D03*
X149350000Y-40700000D03*
X149985000Y-40700000D03*
X150620000Y-40700000D03*
X151255000Y-40700000D03*
X151890000Y-40700000D03*
X152525000Y-40700000D03*
X153160000Y-40700000D03*
X153160000Y-35500000D03*
X152525000Y-35500000D03*
X151890000Y-35500000D03*
X151255000Y-35500000D03*
X150620000Y-35500000D03*
X149985000Y-35500000D03*
X149350000Y-35500000D03*
X148715000Y-35500000D03*
%TD*%
D17*
%TO.C,REF\u002A\u002A*%
X25400000Y-91440000D03*
%TD*%
D12*
%TO.C,U7*%
X66035000Y-41910000D03*
D13*
X66035000Y-44450000D03*
X66035000Y-46990000D03*
X66035000Y-49530000D03*
X66035000Y-52070000D03*
X66035000Y-54610000D03*
X66035000Y-57150000D03*
X66035000Y-59690000D03*
X66035000Y-62230000D03*
X66035000Y-64770000D03*
X66035000Y-67310000D03*
X66035000Y-69850000D03*
X66035000Y-72390000D03*
X66035000Y-74930000D03*
X66035000Y-77470000D03*
X66035000Y-80010000D03*
X81275000Y-80010000D03*
X81275000Y-77470000D03*
X81275000Y-74930000D03*
X81275000Y-72390000D03*
X81275000Y-69850000D03*
X81275000Y-67310000D03*
X81275000Y-64770000D03*
X81275000Y-62230000D03*
X81275000Y-59690000D03*
X81275000Y-57150000D03*
X81275000Y-54610000D03*
X81275000Y-52070000D03*
X81275000Y-49530000D03*
X81275000Y-46990000D03*
X81275000Y-44450000D03*
X81275000Y-41910000D03*
%TD*%
D19*
%TO.C,R3*%
X160020000Y-35560000D03*
X157095000Y-35560000D03*
%TD*%
D20*
%TO.C,C7*%
X157480000Y-26875000D03*
X157480000Y-23925000D03*
%TD*%
D30*
%TO.C,R2*%
X152400000Y-23937500D03*
X152400000Y-26862500D03*
%TD*%
D16*
%TO.C,R5*%
X159635000Y-60960000D03*
X162560000Y-60960000D03*
%TD*%
D31*
%TO.C,R4*%
X162560000Y-31952988D03*
X162560000Y-29027988D03*
%TD*%
D11*
%TO.C,C5*%
X112825000Y-25400000D03*
X115775000Y-25400000D03*
%TD*%
D30*
%TO.C,R6*%
X162560000Y-44257500D03*
X162560000Y-47182500D03*
%TD*%
D32*
%TO.C,SW1*%
X74930000Y-26696000D03*
X72390000Y-26696000D03*
X69850000Y-26696000D03*
X67310000Y-26696000D03*
X67310000Y-35306000D03*
X69850000Y-35306000D03*
X72390000Y-35306000D03*
X74930000Y-35306000D03*
%TD*%
D19*
%TO.C,R1*%
X42102500Y-25400000D03*
X39177500Y-25400000D03*
%TD*%
D20*
%TO.C,C3*%
X81280000Y-37035000D03*
X81280000Y-34085000D03*
%TD*%
M02*
