%TF.GenerationSoftware,KiCad,Pcbnew,7.0.10*%
%TF.CreationDate,2024-01-22T16:24:30-06:00*%
%TF.ProjectId,6502 V1.3-rounded,36353032-2056-4312-9e33-2d726f756e64,rev?*%
%TF.SameCoordinates,Original*%
%TF.FileFunction,Soldermask,Bot*%
%TF.FilePolarity,Negative*%
%FSLAX46Y46*%
G04 Gerber Fmt 4.6, Leading zero omitted, Abs format (unit mm)*
G04 Created by KiCad (PCBNEW 7.0.10) date 2024-01-22 16:24:30*
%MOMM*%
%LPD*%
G01*
G04 APERTURE LIST*
%ADD10R,1.600000X1.600000*%
%ADD11O,1.600000X1.600000*%
%ADD12R,1.700000X1.700000*%
%ADD13O,1.700000X1.700000*%
%ADD14C,5.600000*%
%ADD15C,1.600000*%
%ADD16C,0.650000*%
%ADD17O,2.100000X1.000000*%
%ADD18O,1.800000X1.000000*%
G04 APERTURE END LIST*
D10*
%TO.C,U5*%
X126980000Y-31745000D03*
D11*
X126980000Y-34285000D03*
X126980000Y-36825000D03*
X126980000Y-39365000D03*
X126980000Y-41905000D03*
X126980000Y-44445000D03*
X126980000Y-46985000D03*
X126980000Y-49525000D03*
X126980000Y-52065000D03*
X126980000Y-54605000D03*
X126980000Y-57145000D03*
X126980000Y-59685000D03*
X137140000Y-59685000D03*
X137140000Y-57145000D03*
X137140000Y-54605000D03*
X137140000Y-52065000D03*
X137140000Y-49525000D03*
X137140000Y-46985000D03*
X137140000Y-44445000D03*
X137140000Y-41905000D03*
X137140000Y-39365000D03*
X137140000Y-36825000D03*
X137140000Y-34285000D03*
X137140000Y-31745000D03*
%TD*%
D10*
%TO.C,U1*%
X25395000Y-31755000D03*
D11*
X25395000Y-34295000D03*
X25395000Y-36835000D03*
X25395000Y-39375000D03*
X25395000Y-41915000D03*
X25395000Y-44455000D03*
X25395000Y-46995000D03*
X25395000Y-49535000D03*
X25395000Y-52075000D03*
X25395000Y-54615000D03*
X25395000Y-57155000D03*
X25395000Y-59695000D03*
X25395000Y-62235000D03*
X25395000Y-64775000D03*
X25395000Y-67315000D03*
X25395000Y-69855000D03*
X25395000Y-72395000D03*
X25395000Y-74935000D03*
X25395000Y-77475000D03*
X25395000Y-80015000D03*
X40635000Y-80015000D03*
X40635000Y-77475000D03*
X40635000Y-74935000D03*
X40635000Y-72395000D03*
X40635000Y-69855000D03*
X40635000Y-67315000D03*
X40635000Y-64775000D03*
X40635000Y-62235000D03*
X40635000Y-59695000D03*
X40635000Y-57155000D03*
X40635000Y-54615000D03*
X40635000Y-52075000D03*
X40635000Y-49535000D03*
X40635000Y-46995000D03*
X40635000Y-44455000D03*
X40635000Y-41915000D03*
X40635000Y-39375000D03*
X40635000Y-36835000D03*
X40635000Y-34295000D03*
X40635000Y-31755000D03*
%TD*%
D12*
%TO.C,J2*%
X58420000Y-86360000D03*
D13*
X58420000Y-88900000D03*
X60960000Y-86360000D03*
X60960000Y-88900000D03*
X63500000Y-86360000D03*
X63500000Y-88900000D03*
X66040000Y-86360000D03*
X66040000Y-88900000D03*
X68580000Y-86360000D03*
X68580000Y-88900000D03*
X71120000Y-86360000D03*
X71120000Y-88900000D03*
X73660000Y-86360000D03*
X73660000Y-88900000D03*
X76200000Y-86360000D03*
X76200000Y-88900000D03*
X78740000Y-86360000D03*
X78740000Y-88900000D03*
X81280000Y-86360000D03*
X81280000Y-88900000D03*
X83820000Y-86360000D03*
X83820000Y-88900000D03*
X86360000Y-86360000D03*
X86360000Y-88900000D03*
X88900000Y-86360000D03*
X88900000Y-88900000D03*
X91440000Y-86360000D03*
X91440000Y-88900000D03*
X93980000Y-86360000D03*
X93980000Y-88900000D03*
X96520000Y-86360000D03*
X96520000Y-88900000D03*
X99060000Y-86360000D03*
X99060000Y-88900000D03*
X101600000Y-86360000D03*
X101600000Y-88900000D03*
X104140000Y-86360000D03*
X104140000Y-88900000D03*
X106680000Y-86360000D03*
X106680000Y-88900000D03*
X109220000Y-86360000D03*
X109220000Y-88900000D03*
X111760000Y-86360000D03*
X111760000Y-88900000D03*
X114300000Y-86360000D03*
X114300000Y-88900000D03*
X116840000Y-86360000D03*
X116840000Y-88900000D03*
X119380000Y-86360000D03*
X119380000Y-88900000D03*
X121920000Y-86360000D03*
X121920000Y-88900000D03*
X124460000Y-86360000D03*
X124460000Y-88900000D03*
X127000000Y-86360000D03*
X127000000Y-88900000D03*
X129540000Y-86360000D03*
X129540000Y-88900000D03*
X132080000Y-86360000D03*
X132080000Y-88900000D03*
X134620000Y-86360000D03*
X134620000Y-88900000D03*
X137160000Y-86360000D03*
X137160000Y-88900000D03*
%TD*%
D12*
%TO.C,JP1*%
X136430000Y-68580000D03*
D13*
X136430000Y-71120000D03*
%TD*%
D14*
%TO.C,REF\u002A\u002A*%
X167640000Y-25400000D03*
%TD*%
D10*
%TO.C,U3*%
X86360000Y-31760000D03*
D11*
X86360000Y-34300000D03*
X86360000Y-36840000D03*
X86360000Y-39380000D03*
X86360000Y-41920000D03*
X86360000Y-44460000D03*
X86360000Y-47000000D03*
X86360000Y-49540000D03*
X86360000Y-52080000D03*
X86360000Y-54620000D03*
X86360000Y-57160000D03*
X86360000Y-59700000D03*
X86360000Y-62240000D03*
X86360000Y-64780000D03*
X101600000Y-64780000D03*
X101600000Y-62240000D03*
X101600000Y-59700000D03*
X101600000Y-57160000D03*
X101600000Y-54620000D03*
X101600000Y-52080000D03*
X101600000Y-49540000D03*
X101600000Y-47000000D03*
X101600000Y-44460000D03*
X101600000Y-41920000D03*
X101600000Y-39380000D03*
X101600000Y-36840000D03*
X101600000Y-34300000D03*
X101600000Y-31760000D03*
%TD*%
D10*
%TO.C,X2*%
X160020000Y-68580000D03*
D15*
X160020000Y-83820000D03*
X167640000Y-83820000D03*
X167640000Y-68580000D03*
%TD*%
D14*
%TO.C,REF\u002A\u002A*%
X25400000Y-25400000D03*
%TD*%
D10*
%TO.C,X1*%
X144780000Y-68580000D03*
D15*
X144780000Y-83820000D03*
X152400000Y-83820000D03*
X152400000Y-68580000D03*
%TD*%
D14*
%TO.C,REF\u002A\u002A*%
X167640000Y-91440000D03*
%TD*%
D12*
%TO.C,JP3*%
X127430000Y-68580000D03*
D13*
X127430000Y-71120000D03*
%TD*%
D10*
%TO.C,U4*%
X106675000Y-31760000D03*
D11*
X106675000Y-34300000D03*
X106675000Y-36840000D03*
X106675000Y-39380000D03*
X106675000Y-41920000D03*
X106675000Y-44460000D03*
X106675000Y-47000000D03*
X106675000Y-49540000D03*
X106675000Y-52080000D03*
X106675000Y-54620000D03*
X106675000Y-57160000D03*
X106675000Y-59700000D03*
X106675000Y-62240000D03*
X106675000Y-64780000D03*
X121915000Y-64780000D03*
X121915000Y-62240000D03*
X121915000Y-59700000D03*
X121915000Y-57160000D03*
X121915000Y-54620000D03*
X121915000Y-52080000D03*
X121915000Y-49540000D03*
X121915000Y-47000000D03*
X121915000Y-44460000D03*
X121915000Y-41920000D03*
X121915000Y-39380000D03*
X121915000Y-36840000D03*
X121915000Y-34300000D03*
X121915000Y-31760000D03*
%TD*%
D16*
%TO.C,J1*%
X166442846Y-40973591D03*
X166442846Y-35193591D03*
D17*
X165942846Y-42403591D03*
D18*
X170122846Y-42403591D03*
D17*
X165942846Y-33763591D03*
D18*
X170122846Y-33763591D03*
%TD*%
D12*
%TO.C,JP2*%
X132080000Y-68580000D03*
D13*
X132080000Y-71120000D03*
%TD*%
D10*
%TO.C,U2*%
X45715000Y-31755000D03*
D11*
X45715000Y-34295000D03*
X45715000Y-36835000D03*
X45715000Y-39375000D03*
X45715000Y-41915000D03*
X45715000Y-44455000D03*
X45715000Y-46995000D03*
X45715000Y-49535000D03*
X45715000Y-52075000D03*
X45715000Y-54615000D03*
X45715000Y-57155000D03*
X45715000Y-59695000D03*
X45715000Y-62235000D03*
X45715000Y-64775000D03*
X45715000Y-67315000D03*
X45715000Y-69855000D03*
X45715000Y-72395000D03*
X45715000Y-74935000D03*
X45715000Y-77475000D03*
X45715000Y-80015000D03*
X60955000Y-80015000D03*
X60955000Y-77475000D03*
X60955000Y-74935000D03*
X60955000Y-72395000D03*
X60955000Y-69855000D03*
X60955000Y-67315000D03*
X60955000Y-64775000D03*
X60955000Y-62235000D03*
X60955000Y-59695000D03*
X60955000Y-57155000D03*
X60955000Y-54615000D03*
X60955000Y-52075000D03*
X60955000Y-49535000D03*
X60955000Y-46995000D03*
X60955000Y-44455000D03*
X60955000Y-41915000D03*
X60955000Y-39375000D03*
X60955000Y-36835000D03*
X60955000Y-34295000D03*
X60955000Y-31755000D03*
%TD*%
D14*
%TO.C,REF\u002A\u002A*%
X25400000Y-91440000D03*
%TD*%
D10*
%TO.C,U7*%
X66035000Y-41910000D03*
D11*
X66035000Y-44450000D03*
X66035000Y-46990000D03*
X66035000Y-49530000D03*
X66035000Y-52070000D03*
X66035000Y-54610000D03*
X66035000Y-57150000D03*
X66035000Y-59690000D03*
X66035000Y-62230000D03*
X66035000Y-64770000D03*
X66035000Y-67310000D03*
X66035000Y-69850000D03*
X66035000Y-72390000D03*
X66035000Y-74930000D03*
X66035000Y-77470000D03*
X66035000Y-80010000D03*
X81275000Y-80010000D03*
X81275000Y-77470000D03*
X81275000Y-74930000D03*
X81275000Y-72390000D03*
X81275000Y-69850000D03*
X81275000Y-67310000D03*
X81275000Y-64770000D03*
X81275000Y-62230000D03*
X81275000Y-59690000D03*
X81275000Y-57150000D03*
X81275000Y-54610000D03*
X81275000Y-52070000D03*
X81275000Y-49530000D03*
X81275000Y-46990000D03*
X81275000Y-44450000D03*
X81275000Y-41910000D03*
%TD*%
M02*
