M48
; DRILL file {KiCad 7.0.10} date Mon 22 Jan 2024 04:24:04 PM CST
; FORMAT={-:-/ absolute / inch / decimal}
; #@! TF.CreationDate,2024-01-22T16:24:04-06:00
; #@! TF.GenerationSoftware,Kicad,Pcbnew,7.0.10
; #@! TF.FileFunction,Plated,1,2,PTH
FMAT,2
INCH
; #@! TA.AperFunction,Plated,PTH,ViaDrill
T1C0.0157
; #@! TA.AperFunction,Plated,PTH,ComponentDrill
T2C0.0236
; #@! TA.AperFunction,Plated,PTH,ComponentDrill
T3C0.0315
; #@! TA.AperFunction,Plated,PTH,ComponentDrill
T4C0.0394
; #@! TA.AperFunction,Plated,PTH,ComponentDrill
T5C0.1260
%
G90
G05
T1
X1.11Y-1.35
X1.11Y-1.24
X1.13Y-1.08
X1.17Y-1.66
X1.21Y-2.69
X1.22Y-1.05
X1.24Y-2.8
X1.27Y-2.88
X1.3Y-2.98
X1.31Y-3.29
X1.37Y-1.34
X1.4405Y-3.26
X1.47Y-2.07
X1.48Y-1.0
X1.51Y-1.24
X1.53Y-1.2774
X1.53Y-3.23
X1.5726Y-3.3906
X1.6139Y-3.3899
X1.6324Y-3.353
X1.65Y-3.3105
X1.6552Y-3.39
X1.6966Y-3.39
X1.7379Y-3.39
X1.74Y-2.04
X1.74Y-2.16
X1.74Y-2.25
X1.7447Y-1.95
X1.7595Y-3.52
X1.7795Y-3.42
X1.7995Y-3.31
X2.0359Y-3.5341
X2.04Y-3.39
X2.08Y-3.39
X2.09Y-1.33
X2.12Y-3.39
X2.1594Y-3.39
X2.19Y-0.9
X2.19Y-1.66
X2.1987Y-3.39
X2.2685Y-3.3
X2.3579Y-3.3075
X2.3973Y-3.3075
X2.4273Y-1.0632
X2.43Y-1.0
X2.4437Y-3.3033
X2.47Y-3.24
X2.486Y-1.96
X2.4889Y-1.3772
X2.5099Y-1.4128
X2.5164Y-1.0113
X2.5466Y-1.4319
X2.5576Y-1.0074
X2.56Y-0.96
X2.5695Y-1.4664
X2.76Y-1.19
X2.7666Y-1.5134
X2.92Y-2.53
X2.92Y-3.17
X2.97Y-3.3
X2.98Y-2.43
X3.02Y-2.59
X3.0213Y-3.3
X3.03Y-1.95
X3.06Y-2.7
X3.08Y-1.36
X3.09Y-1.06
X3.1Y-2.9
X3.11Y-1.45
X3.12Y-1.21
X3.13Y-1.06
X3.1301Y-2.6601
X3.17Y-1.0604
X3.18Y-1.26
X3.21Y-1.06
X3.21Y-1.23
X3.24Y-1.2
X3.27Y-1.17
X3.2895Y-2.5
X3.29Y-0.97
X3.29Y-3.2395
X3.35Y-0.9285
X3.35Y-1.1631
X3.36Y-2.69
X3.3781Y-3.1572
X3.38Y-1.1917
X3.4138Y-3.2752
X3.419Y-3.2142
X3.4286Y-3.0587
X3.43Y-0.9
X3.43Y-2.97
X3.43Y-3.1
X3.43Y-3.0174
X3.47Y-1.26
X3.4766Y-3.2125
X3.48Y-2.66
X3.5Y-0.9
X3.5102Y-1.2602
X3.53Y-3.22
X3.5504Y-1.2604
X3.5694Y-3.22
X3.6Y-3.28
X3.62Y-1.26
X3.64Y-1.41
X3.65Y-3.2284
X3.67Y-1.25
X3.72Y-1.3
X3.7216Y-1.2416
X3.78Y-0.9
X3.81Y-3.28
X3.91Y-1.02
X3.91Y-2.66
X3.92Y-1.25
X3.98Y-3.02
X4.0Y-1.02
X4.0093Y-2.83
X4.07Y-2.91
X4.17Y-3.02
X4.2Y-2.91
X4.2984Y-2.9984
X4.33Y-1.75
X4.35Y-1.03
X4.35Y-1.4
X4.53Y-1.66
X4.71Y-2.17
X4.88Y-1.02
X4.9401Y-2.5829
X4.98Y-2.46
X5.09Y-1.0295
X5.0902Y-1.2498
X5.0995Y-1.4
X5.1095Y-1.94
X5.1102Y-3.6302
X5.2359Y-2.1892
X5.2359Y-2.2305
X5.41Y-1.1163
X5.43Y-2.94
X5.47Y-3.34
X5.5596Y-3.2718
X5.56Y-3.4305
X5.57Y-1.69
X5.59Y-1.37
X5.66Y-1.41
X5.66Y-1.91
X5.6714Y-3.1318
X5.7Y-1.7
X5.79Y-1.26
X5.7902Y-1.6098
X5.86Y-1.23
X5.89Y-1.72
X5.9002Y-1.4698
X5.91Y-1.52
X5.95Y-1.6648
X5.98Y-1.31
X5.99Y-1.53
X6.09Y-1.54
X6.11Y-3.36
X6.21Y-2.13
X6.42Y-1.54
X6.43Y-1.46
X6.47Y-2.11
X6.61Y-1.4817
T3
X0.9998Y-1.2502
X0.9998Y-1.3502
X0.9998Y-1.4502
X0.9998Y-1.5502
X0.9998Y-1.6502
X0.9998Y-1.7502
X0.9998Y-1.8502
X0.9998Y-1.9502
X0.9998Y-2.0502
X0.9998Y-2.1502
X0.9998Y-2.2502
X0.9998Y-2.3502
X0.9998Y-2.4502
X0.9998Y-2.5502
X0.9998Y-2.6502
X0.9998Y-2.7502
X0.9998Y-2.8502
X0.9998Y-2.9502
X0.9998Y-3.0502
X0.9998Y-3.1502
X1.5998Y-1.2502
X1.5998Y-1.3502
X1.5998Y-1.4502
X1.5998Y-1.5502
X1.5998Y-1.6502
X1.5998Y-1.7502
X1.5998Y-1.8502
X1.5998Y-1.9502
X1.5998Y-2.0502
X1.5998Y-2.1502
X1.5998Y-2.2502
X1.5998Y-2.3502
X1.5998Y-2.4502
X1.5998Y-2.5502
X1.5998Y-2.6502
X1.5998Y-2.7502
X1.5998Y-2.8502
X1.5998Y-2.9502
X1.5998Y-3.0502
X1.5998Y-3.1502
X1.7998Y-1.2502
X1.7998Y-1.3502
X1.7998Y-1.4502
X1.7998Y-1.5502
X1.7998Y-1.6502
X1.7998Y-1.7502
X1.7998Y-1.8502
X1.7998Y-1.9502
X1.7998Y-2.0502
X1.7998Y-2.1502
X1.7998Y-2.2502
X1.7998Y-2.3502
X1.7998Y-2.4502
X1.7998Y-2.5502
X1.7998Y-2.6502
X1.7998Y-2.7502
X1.7998Y-2.8502
X1.7998Y-2.9502
X1.7998Y-3.0502
X1.7998Y-3.1502
X2.3998Y-1.2502
X2.3998Y-1.3502
X2.3998Y-1.4502
X2.3998Y-1.5502
X2.3998Y-1.6502
X2.3998Y-1.7502
X2.3998Y-1.8502
X2.3998Y-1.9502
X2.3998Y-2.0502
X2.3998Y-2.1502
X2.3998Y-2.2502
X2.3998Y-2.3502
X2.3998Y-2.4502
X2.3998Y-2.5502
X2.3998Y-2.6502
X2.3998Y-2.7502
X2.3998Y-2.8502
X2.3998Y-2.9502
X2.3998Y-3.0502
X2.3998Y-3.1502
X2.5998Y-1.65
X2.5998Y-1.75
X2.5998Y-1.85
X2.5998Y-1.95
X2.5998Y-2.05
X2.5998Y-2.15
X2.5998Y-2.25
X2.5998Y-2.35
X2.5998Y-2.45
X2.5998Y-2.55
X2.5998Y-2.65
X2.5998Y-2.75
X2.5998Y-2.85
X2.5998Y-2.95
X2.5998Y-3.05
X2.5998Y-3.15
X3.1998Y-1.65
X3.1998Y-1.75
X3.1998Y-1.85
X3.1998Y-1.95
X3.1998Y-2.05
X3.1998Y-2.15
X3.1998Y-2.25
X3.1998Y-2.35
X3.1998Y-2.45
X3.1998Y-2.55
X3.1998Y-2.65
X3.1998Y-2.75
X3.1998Y-2.85
X3.1998Y-2.95
X3.1998Y-3.05
X3.1998Y-3.15
X3.4Y-1.2504
X3.4Y-1.3504
X3.4Y-1.4504
X3.4Y-1.5504
X3.4Y-1.6504
X3.4Y-1.7504
X3.4Y-1.8504
X3.4Y-1.9504
X3.4Y-2.0504
X3.4Y-2.1504
X3.4Y-2.2504
X3.4Y-2.3504
X3.4Y-2.4504
X3.4Y-2.5504
X4.0Y-1.2504
X4.0Y-1.3504
X4.0Y-1.4504
X4.0Y-1.5504
X4.0Y-1.6504
X4.0Y-1.7504
X4.0Y-1.8504
X4.0Y-1.9504
X4.0Y-2.0504
X4.0Y-2.1504
X4.0Y-2.2504
X4.0Y-2.3504
X4.0Y-2.4504
X4.0Y-2.5504
X4.1998Y-1.2504
X4.1998Y-1.3504
X4.1998Y-1.4504
X4.1998Y-1.5504
X4.1998Y-1.6504
X4.1998Y-1.7504
X4.1998Y-1.8504
X4.1998Y-1.9504
X4.1998Y-2.0504
X4.1998Y-2.1504
X4.1998Y-2.2504
X4.1998Y-2.3504
X4.1998Y-2.4504
X4.1998Y-2.5504
X4.7998Y-1.2504
X4.7998Y-1.3504
X4.7998Y-1.4504
X4.7998Y-1.5504
X4.7998Y-1.6504
X4.7998Y-1.7504
X4.7998Y-1.8504
X4.7998Y-1.9504
X4.7998Y-2.0504
X4.7998Y-2.1504
X4.7998Y-2.2504
X4.7998Y-2.3504
X4.7998Y-2.4504
X4.7998Y-2.5504
X4.9992Y-1.2498
X4.9992Y-1.3498
X4.9992Y-1.4498
X4.9992Y-1.5498
X4.9992Y-1.6498
X4.9992Y-1.7498
X4.9992Y-1.8498
X4.9992Y-1.9498
X4.9992Y-2.0498
X4.9992Y-2.1498
X4.9992Y-2.2498
X4.9992Y-2.3498
X5.3992Y-1.2498
X5.3992Y-1.3498
X5.3992Y-1.4498
X5.3992Y-1.5498
X5.3992Y-1.6498
X5.3992Y-1.7498
X5.3992Y-1.8498
X5.3992Y-1.9498
X5.3992Y-2.0498
X5.3992Y-2.1498
X5.3992Y-2.2498
X5.3992Y-2.3498
X5.7Y-2.7
X5.7Y-3.3
X6.0Y-2.7
X6.0Y-3.3
X6.3Y-2.7
X6.3Y-3.3
X6.6Y-2.7
X6.6Y-3.3
T4
X2.3Y-3.4
X2.3Y-3.5
X2.4Y-3.4
X2.4Y-3.5
X2.5Y-3.4
X2.5Y-3.5
X2.6Y-3.4
X2.6Y-3.5
X2.7Y-3.4
X2.7Y-3.5
X2.8Y-3.4
X2.8Y-3.5
X2.9Y-3.4
X2.9Y-3.5
X3.0Y-3.4
X3.0Y-3.5
X3.1Y-3.4
X3.1Y-3.5
X3.2Y-3.4
X3.2Y-3.5
X3.3Y-3.4
X3.3Y-3.5
X3.4Y-3.4
X3.4Y-3.5
X3.5Y-3.4
X3.5Y-3.5
X3.6Y-3.4
X3.6Y-3.5
X3.7Y-3.4
X3.7Y-3.5
X3.8Y-3.4
X3.8Y-3.5
X3.9Y-3.4
X3.9Y-3.5
X4.0Y-3.4
X4.0Y-3.5
X4.1Y-3.4
X4.1Y-3.5
X4.2Y-3.4
X4.2Y-3.5
X4.3Y-3.4
X4.3Y-3.5
X4.4Y-3.4
X4.4Y-3.5
X4.5Y-3.4
X4.5Y-3.5
X4.6Y-3.4
X4.6Y-3.5
X4.7Y-3.4
X4.7Y-3.5
X4.8Y-3.4
X4.8Y-3.5
X4.9Y-3.4
X4.9Y-3.5
X5.0Y-3.4
X5.0Y-3.5
X5.0169Y-2.7
X5.0169Y-2.8
X5.1Y-3.4
X5.1Y-3.5
X5.2Y-2.7
X5.2Y-2.8
X5.2Y-3.4
X5.2Y-3.5
X5.3Y-3.4
X5.3Y-3.5
X5.3713Y-2.7
X5.3713Y-2.8
X5.4Y-3.4
X5.4Y-3.5
T5
X1.0Y-1.0
X1.0Y-3.6
X6.6Y-1.0
X6.6Y-3.6
T2
G00X6.5115Y-1.3293
M15
G01X6.5548Y-1.3293
M16
G05
G00X6.5115Y-1.6694
M15
G01X6.5548Y-1.6694
M16
G05
G00X6.682Y-1.3293
M15
G01X6.7135Y-1.3293
M16
G05
G00X6.682Y-1.6694
M15
G01X6.7135Y-1.6694
M16
G05
M30
