%TF.GenerationSoftware,KiCad,Pcbnew,7.0.10*%
%TF.CreationDate,2024-01-22T16:24:30-06:00*%
%TF.ProjectId,6502 V1.3-rounded,36353032-2056-4312-9e33-2d726f756e64,rev?*%
%TF.SameCoordinates,Original*%
%TF.FileFunction,Paste,Top*%
%TF.FilePolarity,Positive*%
%FSLAX46Y46*%
G04 Gerber Fmt 4.6, Leading zero omitted, Abs format (unit mm)*
G04 Created by KiCad (PCBNEW 7.0.10) date 2024-01-22 16:24:30*
%MOMM*%
%LPD*%
G01*
G04 APERTURE LIST*
G04 Aperture macros list*
%AMRoundRect*
0 Rectangle with rounded corners*
0 $1 Rounding radius*
0 $2 $3 $4 $5 $6 $7 $8 $9 X,Y pos of 4 corners*
0 Add a 4 corners polygon primitive as box body*
4,1,4,$2,$3,$4,$5,$6,$7,$8,$9,$2,$3,0*
0 Add four circle primitives for the rounded corners*
1,1,$1+$1,$2,$3*
1,1,$1+$1,$4,$5*
1,1,$1+$1,$6,$7*
1,1,$1+$1,$8,$9*
0 Add four rect primitives between the rounded corners*
20,1,$1+$1,$2,$3,$4,$5,0*
20,1,$1+$1,$4,$5,$6,$7,0*
20,1,$1+$1,$6,$7,$8,$9,0*
20,1,$1+$1,$8,$9,$2,$3,0*%
G04 Aperture macros list end*
%ADD10RoundRect,0.250000X-0.650000X0.325000X-0.650000X-0.325000X0.650000X-0.325000X0.650000X0.325000X0*%
%ADD11RoundRect,0.250000X-0.325000X-0.650000X0.325000X-0.650000X0.325000X0.650000X-0.325000X0.650000X0*%
%ADD12RoundRect,0.250000X-0.312500X-0.625000X0.312500X-0.625000X0.312500X0.625000X-0.312500X0.625000X0*%
%ADD13R,0.900000X0.900000*%
%ADD14RoundRect,0.250000X0.312500X0.625000X-0.312500X0.625000X-0.312500X-0.625000X0.312500X-0.625000X0*%
%ADD15RoundRect,0.250000X0.650000X-0.325000X0.650000X0.325000X-0.650000X0.325000X-0.650000X-0.325000X0*%
%ADD16RoundRect,0.250000X-0.375000X-0.625000X0.375000X-0.625000X0.375000X0.625000X-0.375000X0.625000X0*%
%ADD17R,2.000000X1.600000*%
%ADD18RoundRect,0.150000X0.425000X-0.150000X0.425000X0.150000X-0.425000X0.150000X-0.425000X-0.150000X0*%
%ADD19RoundRect,0.075000X0.500000X-0.075000X0.500000X0.075000X-0.500000X0.075000X-0.500000X-0.075000X0*%
%ADD20O,2.100000X1.000000*%
%ADD21O,1.800000X1.000000*%
%ADD22R,0.400000X1.200000*%
%ADD23RoundRect,0.250000X-0.625000X0.312500X-0.625000X-0.312500X0.625000X-0.312500X0.625000X0.312500X0*%
%ADD24RoundRect,0.250000X0.625000X-0.312500X0.625000X0.312500X-0.625000X0.312500X-0.625000X-0.312500X0*%
%ADD25R,1.120000X2.440000*%
G04 APERTURE END LIST*
D10*
%TO.C,C9*%
X157480000Y-44245000D03*
X157480000Y-47195000D03*
%TD*%
D11*
%TO.C,C2*%
X51865000Y-25400000D03*
X54815000Y-25400000D03*
%TD*%
%TO.C,C1*%
X31545000Y-25400000D03*
X34495000Y-25400000D03*
%TD*%
D12*
%TO.C,R8*%
X159635000Y-50800000D03*
X162560000Y-50800000D03*
%TD*%
D13*
%TO.C,RN1*%
X85020000Y-27940000D03*
X86360000Y-27940000D03*
X87680000Y-27940000D03*
X89020000Y-27940000D03*
X89020000Y-24940000D03*
X87680000Y-24940000D03*
X86360000Y-24940000D03*
X85020000Y-24940000D03*
%TD*%
D14*
%TO.C,R9*%
X160020000Y-40640000D03*
X157095000Y-40640000D03*
%TD*%
D15*
%TO.C,C8*%
X157480000Y-31955000D03*
X157480000Y-29005000D03*
%TD*%
D16*
%TO.C,D3*%
X166240000Y-50800000D03*
X169040000Y-50800000D03*
%TD*%
D12*
%TO.C,R7*%
X159635000Y-55880000D03*
X162560000Y-55880000D03*
%TD*%
D11*
%TO.C,C10*%
X144780000Y-45720000D03*
X147730000Y-45720000D03*
%TD*%
D16*
%TO.C,D2*%
X166240000Y-60960000D03*
X169040000Y-60960000D03*
%TD*%
D17*
%TO.C,SW2*%
X142080000Y-25400000D03*
X147480000Y-25400000D03*
%TD*%
D18*
%TO.C,J1*%
X165367846Y-41283591D03*
X165367846Y-40483591D03*
D19*
X165367846Y-39333591D03*
X165367846Y-38333591D03*
X165367846Y-37833591D03*
X165367846Y-36833591D03*
D18*
X165367846Y-35683591D03*
X165367846Y-34883591D03*
X165367846Y-34883591D03*
X165367846Y-35683591D03*
D19*
X165367846Y-36333591D03*
X165367846Y-37333591D03*
X165367846Y-38833591D03*
X165367846Y-39833591D03*
D18*
X165367846Y-40483591D03*
X165367846Y-41283591D03*
D20*
X165942846Y-42403591D03*
D21*
X170122846Y-42403591D03*
D20*
X165942846Y-33763591D03*
D21*
X170122846Y-33763591D03*
%TD*%
D16*
%TO.C,D1*%
X166240000Y-55880000D03*
X169040000Y-55880000D03*
%TD*%
D11*
%TO.C,C6*%
X131023432Y-25400000D03*
X133973432Y-25400000D03*
%TD*%
D13*
%TO.C,RN2*%
X130740000Y-79200000D03*
X132080000Y-79200000D03*
X133400000Y-79200000D03*
X134740000Y-79200000D03*
X134740000Y-76200000D03*
X133400000Y-76200000D03*
X132080000Y-76200000D03*
X130740000Y-76200000D03*
%TD*%
D11*
%TO.C,C4*%
X92505000Y-25400000D03*
X95455000Y-25400000D03*
%TD*%
D22*
%TO.C,U6*%
X148715000Y-40700000D03*
X149350000Y-40700000D03*
X149985000Y-40700000D03*
X150620000Y-40700000D03*
X151255000Y-40700000D03*
X151890000Y-40700000D03*
X152525000Y-40700000D03*
X153160000Y-40700000D03*
X153160000Y-35500000D03*
X152525000Y-35500000D03*
X151890000Y-35500000D03*
X151255000Y-35500000D03*
X150620000Y-35500000D03*
X149985000Y-35500000D03*
X149350000Y-35500000D03*
X148715000Y-35500000D03*
%TD*%
D14*
%TO.C,R3*%
X160020000Y-35560000D03*
X157095000Y-35560000D03*
%TD*%
D15*
%TO.C,C7*%
X157480000Y-26875000D03*
X157480000Y-23925000D03*
%TD*%
D23*
%TO.C,R2*%
X152400000Y-23937500D03*
X152400000Y-26862500D03*
%TD*%
D12*
%TO.C,R5*%
X159635000Y-60960000D03*
X162560000Y-60960000D03*
%TD*%
D24*
%TO.C,R4*%
X162560000Y-31952988D03*
X162560000Y-29027988D03*
%TD*%
D11*
%TO.C,C5*%
X112825000Y-25400000D03*
X115775000Y-25400000D03*
%TD*%
D23*
%TO.C,R6*%
X162560000Y-44257500D03*
X162560000Y-47182500D03*
%TD*%
D25*
%TO.C,SW1*%
X74930000Y-26696000D03*
X72390000Y-26696000D03*
X69850000Y-26696000D03*
X67310000Y-26696000D03*
X67310000Y-35306000D03*
X69850000Y-35306000D03*
X72390000Y-35306000D03*
X74930000Y-35306000D03*
%TD*%
D14*
%TO.C,R1*%
X42102500Y-25400000D03*
X39177500Y-25400000D03*
%TD*%
D15*
%TO.C,C3*%
X81280000Y-37035000D03*
X81280000Y-34085000D03*
%TD*%
M02*
